<svg id="Layer_1" data-name="Layer 1" xmlns="http://www.w3.org/2000/svg" viewBox="0 0 2560 1440"><circle cx="79.5" cy="79.5" r="4"/><circle cx="79.5" cy="159.5" r="4"/><circle cx="79.5" cy="239.5" r="4"/><circle cx="79.5" cy="319.5" r="4"/><circle cx="79.5" cy="399.5" r="4"/><circle cx="79.5" cy="479.5" r="4"/><circle cx="79.5" cy="559.5" r="4"/><circle cx="79.5" cy="639.5" r="4"/><circle cx="79.5" cy="719.5" r="4"/><circle cx="79.5" cy="799.5" r="4"/><circle cx="79.5" cy="879.5" r="4"/><circle cx="79.5" cy="959.5" r="4"/><circle cx="79.5" cy="1039.5" r="4"/><circle cx="79.5" cy="1119.5" r="4"/><circle cx="79.5" cy="1199.5" r="4"/><circle cx="79.5" cy="1279.5" r="4"/><circle cx="79.5" cy="1359.5" r="4"/><circle cx="159.5" cy="79.5" r="4"/><circle cx="159.5" cy="159.5" r="4"/><circle cx="159.5" cy="239.5" r="4"/><circle cx="159.5" cy="319.5" r="4"/><circle cx="159.5" cy="399.5" r="4"/><circle cx="159.5" cy="479.5" r="4"/><circle cx="159.5" cy="559.5" r="4"/><circle cx="159.5" cy="639.5" r="4"/><circle cx="159.5" cy="719.5" r="4"/><circle cx="159.5" cy="799.5" r="4"/><circle cx="159.5" cy="879.5" r="4"/><circle cx="159.5" cy="959.5" r="4"/><circle cx="159.5" cy="1039.5" r="4"/><circle cx="159.5" cy="1119.5" r="4"/><circle cx="159.5" cy="1199.5" r="4"/><circle cx="159.5" cy="1279.5" r="4"/><circle cx="159.5" cy="1359.5" r="4"/><circle cx="239.5" cy="79.5" r="4"/><circle cx="239.5" cy="159.5" r="4"/><circle cx="239.5" cy="239.5" r="4"/><circle cx="239.5" cy="319.5" r="4"/><circle cx="239.5" cy="399.5" r="4"/><circle cx="239.5" cy="479.5" r="4"/><circle cx="239.5" cy="559.5" r="4"/><circle cx="239.5" cy="639.5" r="4"/><circle cx="239.5" cy="719.5" r="4"/><circle cx="239.5" cy="799.5" r="4"/><circle cx="239.5" cy="879.5" r="4"/><circle cx="239.5" cy="959.5" r="4"/><circle cx="239.5" cy="1039.5" r="4"/><circle cx="239.5" cy="1119.5" r="4"/><circle cx="239.5" cy="1199.5" r="4"/><circle cx="239.5" cy="1279.5" r="4"/><circle cx="239.5" cy="1359.5" r="4"/><circle cx="319.5" cy="79.5" r="4"/><circle cx="319.5" cy="159.5" r="4"/><circle cx="319.5" cy="239.5" r="4"/><circle cx="319.5" cy="319.5" r="4"/><circle cx="319.5" cy="399.5" r="4"/><circle cx="319.5" cy="479.5" r="4"/><circle cx="319.5" cy="559.5" r="4"/><circle cx="319.5" cy="639.5" r="4"/><circle cx="319.5" cy="719.5" r="4"/><circle cx="319.5" cy="799.5" r="4"/><circle cx="319.5" cy="879.5" r="4"/><circle cx="319.5" cy="959.5" r="4"/><circle cx="319.5" cy="1039.5" r="4"/><circle cx="319.5" cy="1119.5" r="4"/><circle cx="319.5" cy="1199.5" r="4"/><circle cx="319.5" cy="1279.5" r="4"/><circle cx="319.5" cy="1359.5" r="4"/><circle cx="399.5" cy="79.5" r="4"/><circle cx="399.5" cy="159.5" r="4"/><circle cx="399.5" cy="239.5" r="4"/><circle cx="399.5" cy="319.5" r="4"/><circle cx="399.5" cy="399.5" r="4"/><circle cx="399.5" cy="479.5" r="4"/><circle cx="399.5" cy="559.5" r="4"/><circle cx="399.5" cy="639.5" r="4"/><circle cx="399.5" cy="719.5" r="4"/><circle cx="399.5" cy="799.5" r="4"/><circle cx="399.5" cy="879.5" r="4"/><circle cx="399.5" cy="959.5" r="4"/><circle cx="399.5" cy="1039.5" r="4"/><circle cx="399.5" cy="1119.5" r="4"/><circle cx="399.5" cy="1199.5" r="4"/><circle cx="399.5" cy="1279.5" r="4"/><circle cx="399.5" cy="1359.5" r="4"/><circle cx="479.5" cy="79.5" r="4"/><circle cx="479.5" cy="159.5" r="4"/><circle cx="479.5" cy="239.5" r="4"/><circle cx="479.5" cy="319.5" r="4"/><circle cx="479.5" cy="399.5" r="4"/><circle cx="479.5" cy="479.5" r="4"/><circle cx="479.5" cy="559.5" r="4"/><circle cx="479.5" cy="639.5" r="4"/><circle cx="479.5" cy="719.5" r="4"/><circle cx="479.5" cy="799.5" r="4"/><circle cx="479.5" cy="879.5" r="4"/><circle cx="479.5" cy="959.5" r="4"/><circle cx="479.5" cy="1039.5" r="4"/><circle cx="479.5" cy="1119.5" r="4"/><circle cx="479.5" cy="1199.5" r="4"/><circle cx="479.5" cy="1279.5" r="4"/><circle cx="479.5" cy="1359.5" r="4"/><circle cx="559.5" cy="79.5" r="4"/><circle cx="559.5" cy="159.5" r="4"/><circle cx="559.5" cy="239.5" r="4"/><circle cx="559.5" cy="319.5" r="4"/><circle cx="559.5" cy="399.5" r="4"/><circle cx="559.5" cy="479.5" r="4"/><circle cx="559.5" cy="559.5" r="4"/><circle cx="559.5" cy="639.5" r="4"/><circle cx="559.5" cy="719.5" r="4"/><circle cx="559.5" cy="799.5" r="4"/><circle cx="559.5" cy="879.5" r="4"/><circle cx="559.5" cy="959.5" r="4"/><circle cx="559.5" cy="1039.5" r="4"/><circle cx="559.5" cy="1119.5" r="4"/><circle cx="559.5" cy="1199.5" r="4"/><circle cx="559.5" cy="1279.5" r="4"/><circle cx="559.5" cy="1359.5" r="4"/><circle cx="639.5" cy="79.5" r="4"/><circle cx="639.5" cy="159.5" r="4"/><circle cx="639.5" cy="239.5" r="4"/><circle cx="639.5" cy="319.5" r="4"/><circle cx="639.5" cy="399.5" r="4"/><circle cx="639.5" cy="479.5" r="4"/><circle cx="639.5" cy="559.5" r="4"/><circle cx="639.5" cy="639.5" r="4"/><circle cx="639.5" cy="719.5" r="4"/><circle cx="639.5" cy="799.5" r="4"/><circle cx="639.5" cy="879.5" r="4"/><circle cx="639.5" cy="959.5" r="4"/><circle cx="639.5" cy="1039.5" r="4"/><circle cx="639.5" cy="1119.5" r="4"/><circle cx="639.5" cy="1199.5" r="4"/><circle cx="639.5" cy="1279.5" r="4"/><circle cx="639.5" cy="1359.5" r="4"/><circle cx="719.5" cy="79.5" r="4"/><circle cx="719.5" cy="159.5" r="4"/><circle cx="719.5" cy="239.5" r="4"/><circle cx="719.5" cy="319.5" r="4"/><circle cx="719.5" cy="399.5" r="4"/><circle cx="719.5" cy="479.5" r="4"/><circle cx="719.5" cy="559.5" r="4"/><circle cx="719.5" cy="639.5" r="4"/><circle cx="719.5" cy="719.5" r="4"/><circle cx="719.5" cy="799.5" r="4"/><circle cx="719.5" cy="879.5" r="4"/><circle cx="719.5" cy="959.5" r="4"/><circle cx="719.5" cy="1039.5" r="4"/><circle cx="719.5" cy="1119.5" r="4"/><circle cx="719.5" cy="1199.5" r="4"/><circle cx="719.5" cy="1279.5" r="4"/><circle cx="719.5" cy="1359.5" r="4"/><circle cx="799.5" cy="79.5" r="4"/><circle cx="799.5" cy="159.5" r="4"/><circle cx="799.5" cy="239.5" r="4"/><circle cx="799.5" cy="319.5" r="4"/><circle cx="799.5" cy="399.5" r="4"/><circle cx="799.5" cy="479.5" r="4"/><circle cx="799.5" cy="559.5" r="4"/><circle cx="799.5" cy="639.5" r="4"/><circle cx="799.5" cy="719.5" r="4"/><circle cx="799.5" cy="799.5" r="4"/><circle cx="799.5" cy="879.5" r="4"/><circle cx="799.5" cy="959.5" r="4"/><circle cx="799.5" cy="1039.5" r="4"/><circle cx="799.5" cy="1119.5" r="4"/><circle cx="799.5" cy="1199.5" r="4"/><circle cx="799.5" cy="1279.5" r="4"/><circle cx="799.5" cy="1359.5" r="4"/><circle cx="879.5" cy="79.5" r="4"/><circle cx="879.5" cy="159.5" r="4"/><circle cx="879.5" cy="239.5" r="4"/><circle cx="879.5" cy="319.5" r="4"/><circle cx="879.5" cy="399.5" r="4"/><circle cx="879.5" cy="479.5" r="4"/><circle cx="879.5" cy="559.5" r="4"/><circle cx="879.5" cy="639.5" r="4"/><circle cx="879.5" cy="719.5" r="4"/><circle cx="879.5" cy="799.5" r="4"/><circle cx="879.5" cy="879.5" r="4"/><circle cx="879.5" cy="959.5" r="4"/><circle cx="879.5" cy="1039.5" r="4"/><circle cx="879.5" cy="1119.5" r="4"/><circle cx="879.5" cy="1199.5" r="4"/><circle cx="879.5" cy="1279.5" r="4"/><circle cx="879.5" cy="1359.5" r="4"/><circle cx="959.5" cy="79.5" r="4"/><circle cx="959.5" cy="159.5" r="4"/><circle cx="959.5" cy="239.5" r="4"/><circle cx="959.5" cy="319.5" r="4"/><circle cx="959.5" cy="399.5" r="4"/><circle cx="959.5" cy="479.5" r="4"/><circle cx="959.5" cy="559.5" r="4"/><circle cx="959.5" cy="639.5" r="4"/><circle cx="959.5" cy="719.5" r="4"/><circle cx="959.5" cy="799.5" r="4"/><circle cx="959.5" cy="879.5" r="4"/><circle cx="959.5" cy="959.5" r="4"/><circle cx="959.5" cy="1039.5" r="4"/><circle cx="959.5" cy="1119.5" r="4"/><circle cx="959.5" cy="1199.5" r="4"/><circle cx="959.5" cy="1279.5" r="4"/><circle cx="959.5" cy="1359.5" r="4"/><circle cx="1039.5" cy="79.5" r="4"/><circle cx="1039.5" cy="159.5" r="4"/><circle cx="1039.5" cy="239.5" r="4"/><circle cx="1039.5" cy="319.5" r="4"/><circle cx="1039.5" cy="399.5" r="4"/><circle cx="1039.5" cy="479.5" r="4"/><circle cx="1039.5" cy="559.5" r="4"/><circle cx="1039.5" cy="639.5" r="4"/><circle cx="1039.5" cy="719.5" r="4"/><circle cx="1039.5" cy="799.5" r="4"/><circle cx="1039.5" cy="879.5" r="4"/><circle cx="1039.5" cy="959.5" r="4"/><circle cx="1039.5" cy="1039.5" r="4"/><circle cx="1039.5" cy="1119.5" r="4"/><circle cx="1039.5" cy="1199.5" r="4"/><circle cx="1039.5" cy="1279.5" r="4"/><circle cx="1039.5" cy="1359.5" r="4"/><circle cx="1119.5" cy="79.5" r="4"/><circle cx="1119.5" cy="159.5" r="4"/><circle cx="1119.5" cy="239.5" r="4"/><circle cx="1119.5" cy="319.5" r="4"/><circle cx="1119.5" cy="399.5" r="4"/><circle cx="1119.5" cy="479.5" r="4"/><circle cx="1119.5" cy="559.5" r="4"/><circle cx="1119.5" cy="639.5" r="4"/><circle cx="1119.5" cy="719.5" r="4"/><circle cx="1119.5" cy="799.5" r="4"/><circle cx="1119.5" cy="879.5" r="4"/><circle cx="1119.5" cy="959.5" r="4"/><circle cx="1119.5" cy="1039.5" r="4"/><circle cx="1119.5" cy="1119.5" r="4"/><circle cx="1119.5" cy="1199.5" r="4"/><circle cx="1119.5" cy="1279.5" r="4"/><circle cx="1119.5" cy="1359.5" r="4"/><circle cx="1199.5" cy="79.5" r="4"/><circle cx="1199.5" cy="159.5" r="4"/><circle cx="1199.5" cy="239.5" r="4"/><circle cx="1199.5" cy="319.5" r="4"/><circle cx="1199.5" cy="399.5" r="4"/><circle cx="1199.5" cy="479.5" r="4"/><circle cx="1199.5" cy="559.5" r="4"/><circle cx="1199.5" cy="639.5" r="4"/><circle cx="1199.5" cy="719.5" r="4"/><circle cx="1199.5" cy="799.5" r="4"/><circle cx="1199.5" cy="879.5" r="4"/><circle cx="1199.5" cy="959.5" r="4"/><circle cx="1199.5" cy="1039.5" r="4"/><circle cx="1199.5" cy="1119.5" r="4"/><circle cx="1199.5" cy="1199.5" r="4"/><circle cx="1199.5" cy="1279.5" r="4"/><circle cx="1199.5" cy="1359.5" r="4"/><circle cx="1279.5" cy="79.5" r="4"/><circle cx="1279.5" cy="159.5" r="4"/><circle cx="1279.5" cy="239.5" r="4"/><circle cx="1279.5" cy="319.5" r="4"/><circle cx="1279.5" cy="399.5" r="4"/><circle cx="1279.5" cy="479.5" r="4"/><circle cx="1279.5" cy="559.5" r="4"/><circle cx="1279.5" cy="639.5" r="4"/><circle cx="1279.5" cy="719.5" r="4"/><circle cx="1279.5" cy="799.5" r="4"/><circle cx="1279.5" cy="879.5" r="4"/><circle cx="1279.5" cy="959.5" r="4"/><circle cx="1279.5" cy="1039.5" r="4"/><circle cx="1279.5" cy="1119.5" r="4"/><circle cx="1279.5" cy="1199.5" r="4"/><circle cx="1279.5" cy="1279.5" r="4"/><circle cx="1279.5" cy="1359.5" r="4"/><circle cx="1359.5" cy="79.5" r="4"/><circle cx="1359.5" cy="159.5" r="4"/><circle cx="1359.5" cy="239.5" r="4"/><circle cx="1359.5" cy="319.5" r="4"/><circle cx="1359.5" cy="399.5" r="4"/><circle cx="1359.5" cy="479.5" r="4"/><circle cx="1359.5" cy="559.5" r="4"/><circle cx="1359.5" cy="639.5" r="4"/><circle cx="1359.5" cy="719.5" r="4"/><circle cx="1359.5" cy="799.5" r="4"/><circle cx="1359.5" cy="879.5" r="4"/><circle cx="1359.5" cy="959.5" r="4"/><circle cx="1359.5" cy="1039.5" r="4"/><circle cx="1359.5" cy="1119.5" r="4"/><circle cx="1359.5" cy="1199.5" r="4"/><circle cx="1359.5" cy="1279.5" r="4"/><circle cx="1359.5" cy="1359.5" r="4"/><circle cx="1439.5" cy="79.5" r="4"/><circle cx="1439.5" cy="159.5" r="4"/><circle cx="1439.5" cy="239.5" r="4"/><circle cx="1439.5" cy="319.5" r="4"/><circle cx="1439.5" cy="399.5" r="4"/><circle cx="1439.5" cy="479.5" r="4"/><circle cx="1439.5" cy="559.5" r="4"/><circle cx="1439.5" cy="639.5" r="4"/><circle cx="1439.5" cy="719.5" r="4"/><circle cx="1439.5" cy="799.5" r="4"/><circle cx="1439.5" cy="879.5" r="4"/><circle cx="1439.5" cy="959.5" r="4"/><circle cx="1439.5" cy="1039.5" r="4"/><circle cx="1439.5" cy="1119.5" r="4"/><circle cx="1439.5" cy="1199.5" r="4"/><circle cx="1439.5" cy="1279.5" r="4"/><circle cx="1439.5" cy="1359.5" r="4"/><circle cx="1519.5" cy="79.5" r="4"/><circle cx="1519.5" cy="159.5" r="4"/><circle cx="1519.5" cy="239.5" r="4"/><circle cx="1519.5" cy="319.5" r="4"/><circle cx="1519.5" cy="399.5" r="4"/><circle cx="1519.5" cy="479.5" r="4"/><circle cx="1519.5" cy="559.5" r="4"/><circle cx="1519.5" cy="639.5" r="4"/><circle cx="1519.5" cy="719.5" r="4"/><circle cx="1519.5" cy="799.5" r="4"/><circle cx="1519.5" cy="879.5" r="4"/><circle cx="1519.5" cy="959.5" r="4"/><circle cx="1519.5" cy="1039.5" r="4"/><circle cx="1519.5" cy="1119.5" r="4"/><circle cx="1519.5" cy="1199.5" r="4"/><circle cx="1519.5" cy="1279.5" r="4"/><circle cx="1519.5" cy="1359.5" r="4"/><circle cx="1599.5" cy="79.5" r="4"/><circle cx="1599.5" cy="159.5" r="4"/><circle cx="1599.5" cy="239.5" r="4"/><circle cx="1599.5" cy="319.5" r="4"/><circle cx="1599.5" cy="399.5" r="4"/><circle cx="1599.5" cy="479.5" r="4"/><circle cx="1599.5" cy="559.5" r="4"/><circle cx="1599.5" cy="639.5" r="4"/><circle cx="1599.5" cy="719.5" r="4"/><circle cx="1599.5" cy="799.5" r="4"/><circle cx="1599.5" cy="879.5" r="4"/><circle cx="1599.5" cy="959.5" r="4"/><circle cx="1599.5" cy="1039.5" r="4"/><circle cx="1599.5" cy="1119.5" r="4"/><circle cx="1599.5" cy="1199.5" r="4"/><circle cx="1599.5" cy="1279.5" r="4"/><circle cx="1599.5" cy="1359.5" r="4"/><circle cx="1679.5" cy="79.5" r="4"/><circle cx="1679.5" cy="159.5" r="4"/><circle cx="1679.5" cy="239.5" r="4"/><circle cx="1679.5" cy="319.5" r="4"/><circle cx="1679.5" cy="399.5" r="4"/><circle cx="1679.5" cy="479.5" r="4"/><circle cx="1679.5" cy="559.5" r="4"/><circle cx="1679.5" cy="639.5" r="4"/><circle cx="1679.5" cy="719.5" r="4"/><circle cx="1679.5" cy="799.5" r="4"/><circle cx="1679.5" cy="879.5" r="4"/><circle cx="1679.5" cy="959.5" r="4"/><circle cx="1679.5" cy="1039.5" r="4"/><circle cx="1679.5" cy="1119.5" r="4"/><circle cx="1679.5" cy="1199.5" r="4"/><circle cx="1679.5" cy="1279.5" r="4"/><circle cx="1679.5" cy="1359.5" r="4"/><circle cx="1759.5" cy="79.5" r="4"/><circle cx="1759.5" cy="159.5" r="4"/><circle cx="1759.5" cy="239.5" r="4"/><circle cx="1759.5" cy="319.5" r="4"/><circle cx="1759.5" cy="399.5" r="4"/><circle cx="1759.5" cy="479.5" r="4"/><circle cx="1759.5" cy="559.5" r="4"/><circle cx="1759.5" cy="639.5" r="4"/><circle cx="1759.5" cy="719.5" r="4"/><circle cx="1759.5" cy="799.5" r="4"/><circle cx="1759.5" cy="879.5" r="4"/><circle cx="1759.5" cy="959.5" r="4"/><circle cx="1759.5" cy="1039.5" r="4"/><circle cx="1759.5" cy="1119.5" r="4"/><circle cx="1759.5" cy="1199.5" r="4"/><circle cx="1759.5" cy="1279.5" r="4"/><circle cx="1759.5" cy="1359.5" r="4"/><circle cx="1839.5" cy="79.5" r="4"/><circle cx="1839.5" cy="159.5" r="4"/><circle cx="1839.5" cy="239.5" r="4"/><circle cx="1839.5" cy="319.5" r="4"/><circle cx="1839.5" cy="399.5" r="4"/><circle cx="1839.5" cy="479.5" r="4"/><circle cx="1839.5" cy="559.5" r="4"/><circle cx="1839.5" cy="639.5" r="4"/><circle cx="1839.5" cy="719.5" r="4"/><circle cx="1839.5" cy="799.5" r="4"/><circle cx="1839.5" cy="879.5" r="4"/><circle cx="1839.5" cy="959.5" r="4"/><circle cx="1839.5" cy="1039.5" r="4"/><circle cx="1839.5" cy="1119.5" r="4"/><circle cx="1839.5" cy="1199.5" r="4"/><circle cx="1839.5" cy="1279.5" r="4"/><circle cx="1839.5" cy="1359.5" r="4"/><circle cx="1919.5" cy="79.5" r="4"/><circle cx="1919.5" cy="159.5" r="4"/><circle cx="1919.5" cy="239.5" r="4"/><circle cx="1919.5" cy="319.5" r="4"/><circle cx="1919.5" cy="399.5" r="4"/><circle cx="1919.5" cy="479.5" r="4"/><circle cx="1919.5" cy="559.5" r="4"/><circle cx="1919.5" cy="639.5" r="4"/><circle cx="1919.5" cy="719.5" r="4"/><circle cx="1919.5" cy="799.5" r="4"/><circle cx="1919.5" cy="879.5" r="4"/><circle cx="1919.5" cy="959.5" r="4"/><circle cx="1919.5" cy="1039.5" r="4"/><circle cx="1919.5" cy="1119.5" r="4"/><circle cx="1919.5" cy="1199.5" r="4"/><circle cx="1919.5" cy="1279.5" r="4"/><circle cx="1919.5" cy="1359.5" r="4"/><circle cx="1999.5" cy="79.5" r="4"/><circle cx="1999.5" cy="159.5" r="4"/><circle cx="1999.5" cy="239.5" r="4"/><circle cx="1999.5" cy="319.5" r="4"/><circle cx="1999.5" cy="399.5" r="4"/><circle cx="1999.5" cy="479.5" r="4"/><circle cx="1999.5" cy="559.5" r="4"/><circle cx="1999.5" cy="639.5" r="4"/><circle cx="1999.5" cy="719.5" r="4"/><circle cx="1999.5" cy="799.5" r="4"/><circle cx="1999.5" cy="879.5" r="4"/><circle cx="1999.5" cy="959.5" r="4"/><circle cx="1999.5" cy="1039.5" r="4"/><circle cx="1999.5" cy="1119.5" r="4"/><circle cx="1999.5" cy="1199.5" r="4"/><circle cx="1999.5" cy="1279.5" r="4"/><circle cx="1999.5" cy="1359.5" r="4"/><circle cx="2079.5" cy="79.5" r="4"/><circle cx="2079.5" cy="159.5" r="4"/><circle cx="2079.5" cy="239.5" r="4"/><circle cx="2079.5" cy="319.5" r="4"/><circle cx="2079.5" cy="399.5" r="4"/><circle cx="2079.5" cy="479.5" r="4"/><circle cx="2079.5" cy="559.5" r="4"/><circle cx="2079.5" cy="639.5" r="4"/><circle cx="2079.5" cy="719.5" r="4"/><circle cx="2079.5" cy="799.5" r="4"/><circle cx="2079.5" cy="879.5" r="4"/><circle cx="2079.5" cy="959.5" r="4"/><circle cx="2079.5" cy="1039.5" r="4"/><circle cx="2079.5" cy="1119.5" r="4"/><circle cx="2079.5" cy="1199.5" r="4"/><circle cx="2079.5" cy="1279.5" r="4"/><circle cx="2079.5" cy="1359.5" r="4"/><circle cx="2159.5" cy="79.5" r="4"/><circle cx="2159.5" cy="159.5" r="4"/><circle cx="2159.5" cy="239.5" r="4"/><circle cx="2159.5" cy="319.5" r="4"/><circle cx="2159.5" cy="399.5" r="4"/><circle cx="2159.5" cy="479.5" r="4"/><circle cx="2159.5" cy="559.5" r="4"/><circle cx="2159.5" cy="639.5" r="4"/><circle cx="2159.5" cy="719.5" r="4"/><circle cx="2159.5" cy="799.5" r="4"/><circle cx="2159.5" cy="879.5" r="4"/><circle cx="2159.5" cy="959.5" r="4"/><circle cx="2159.5" cy="1039.5" r="4"/><circle cx="2159.5" cy="1119.5" r="4"/><circle cx="2159.5" cy="1199.5" r="4"/><circle cx="2159.5" cy="1279.5" r="4"/><circle cx="2159.5" cy="1359.5" r="4"/><circle cx="2239.5" cy="79.5" r="4"/><circle cx="2239.5" cy="159.5" r="4"/><circle cx="2239.5" cy="239.5" r="4"/><circle cx="2239.5" cy="319.5" r="4"/><circle cx="2239.5" cy="399.5" r="4"/><circle cx="2239.5" cy="479.5" r="4"/><circle cx="2239.5" cy="559.5" r="4"/><circle cx="2239.5" cy="639.5" r="4"/><circle cx="2239.5" cy="719.5" r="4"/><circle cx="2239.5" cy="799.5" r="4"/><circle cx="2239.5" cy="879.5" r="4"/><circle cx="2239.5" cy="959.5" r="4"/><circle cx="2239.5" cy="1039.5" r="4"/><circle cx="2239.5" cy="1119.5" r="4"/><circle cx="2239.5" cy="1199.5" r="4"/><circle cx="2239.5" cy="1279.5" r="4"/><circle cx="2239.5" cy="1359.5" r="4"/><circle cx="2319.5" cy="79.5" r="4"/><circle cx="2319.5" cy="159.5" r="4"/><circle cx="2319.5" cy="239.5" r="4"/><circle cx="2319.5" cy="319.5" r="4"/><circle cx="2319.5" cy="399.5" r="4"/><circle cx="2319.5" cy="479.5" r="4"/><circle cx="2319.5" cy="559.5" r="4"/><circle cx="2319.5" cy="639.5" r="4"/><circle cx="2319.5" cy="719.5" r="4"/><circle cx="2319.5" cy="799.5" r="4"/><circle cx="2319.5" cy="879.5" r="4"/><circle cx="2319.5" cy="959.5" r="4"/><circle cx="2319.5" cy="1039.5" r="4"/><circle cx="2319.5" cy="1119.5" r="4"/><circle cx="2319.5" cy="1199.5" r="4"/><circle cx="2319.5" cy="1279.5" r="4"/><circle cx="2319.5" cy="1359.5" r="4"/><circle cx="2399.5" cy="79.5" r="4"/><circle cx="2399.5" cy="159.5" r="4"/><circle cx="2399.5" cy="239.5" r="4"/><circle cx="2399.5" cy="319.5" r="4"/><circle cx="2399.5" cy="399.5" r="4"/><circle cx="2399.5" cy="479.5" r="4"/><circle cx="2399.5" cy="559.5" r="4"/><circle cx="2399.5" cy="639.5" r="4"/><circle cx="2399.5" cy="719.5" r="4"/><circle cx="2399.5" cy="799.5" r="4"/><circle cx="2399.5" cy="879.5" r="4"/><circle cx="2399.5" cy="959.5" r="4"/><circle cx="2399.5" cy="1039.5" r="4"/><circle cx="2399.5" cy="1119.5" r="4"/><circle cx="2399.5" cy="1199.5" r="4"/><circle cx="2399.5" cy="1279.5" r="4"/><circle cx="2399.5" cy="1359.5" r="4"/><circle cx="2479.5" cy="79.5" r="4"/><circle cx="2479.5" cy="159.5" r="4"/><circle cx="2479.5" cy="239.5" r="4"/><circle cx="2479.5" cy="319.5" r="4"/><circle cx="2479.5" cy="399.5" r="4"/><circle cx="2479.5" cy="479.5" r="4"/><circle cx="2479.5" cy="559.5" r="4"/><circle cx="2479.5" cy="639.5" r="4"/><circle cx="2479.5" cy="719.5" r="4"/><circle cx="2479.5" cy="799.5" r="4"/><circle cx="2479.5" cy="879.5" r="4"/><circle cx="2479.5" cy="959.5" r="4"/><circle cx="2479.5" cy="1039.5" r="4"/><circle cx="2479.5" cy="1119.5" r="4"/><circle cx="2479.5" cy="1199.5" r="4"/><circle cx="2479.5" cy="1279.5" r="4"/><circle cx="2479.5" cy="1359.5" r="4"/></svg>